<svg width="625" height="119" viewBox="0 0 625 119" fill="none" xmlns="http://www.w3.org/2000/svg">
<path d="M6.10352e-05 89.6V-3.05176e-05H68.9921V22.784H28.1601V36.224H73.3441V52.224H28.1601V66.688H77.9521V89.6H6.10352e-05ZM119.869 91.392C109.373 91.392 93.8851 88.192 85.8211 84.48L86.4611 64.768C94.3971 70.272 104.765 73.6 114.237 73.6C125.245 73.6 129.213 71.68 129.213 67.968C129.213 63.488 123.069 62.208 110.141 59.776C96.5731 57.472 86.7171 51.968 86.7171 39.936C86.7171 28.8 98.2371 19.456 119.613 19.456C132.157 19.456 142.141 21.376 149.949 24.064V41.856C143.933 38.912 133.821 36.864 126.141 36.864C115.773 36.864 111.165 38.656 111.165 42.24C111.165 46.08 117.309 47.488 130.237 49.92C144.701 52.608 153.661 57.472 153.661 69.504C153.661 82.56 141.245 91.392 119.869 91.392ZM162.997 118.656V21.248H166.197L182.965 34.688H183.605C188.981 25.344 198.965 19.456 210.741 19.456C229.685 19.456 243.381 35.072 243.381 55.424C243.381 76.672 230.709 91.392 213.173 91.392C201.525 91.392 192.821 84.736 188.085 75.776H187.189V118.656H162.997ZM202.549 71.68C211.637 71.68 218.805 64.768 218.805 55.168C218.805 45.568 211.637 38.784 202.549 38.784C193.461 38.784 186.293 45.568 186.293 55.04C186.293 64.768 193.461 71.68 202.549 71.68ZM252.497 89.6V21.248H255.825L271.825 33.152H272.337C277.329 24.32 286.417 19.456 297.041 19.456C301.777 19.456 305.489 20.224 309.201 21.76L308.817 43.008C307.793 42.624 304.081 39.424 297.425 39.424C285.137 39.424 276.945 47.232 276.689 58.624V89.6H252.497ZM352.403 91.392C324.115 91.392 311.315 73.728 311.315 55.296C311.315 34.944 327.187 19.456 350.099 19.456C372.243 19.456 387.987 34.944 387.987 54.528C387.987 56.192 387.859 59.776 387.731 61.056H334.867C336.019 68.992 345.363 73.728 356.499 73.728C365.715 73.728 371.859 71.04 378.643 66.56L381.203 84.48C374.163 89.088 363.667 91.392 352.403 91.392ZM334.355 50.432H365.715C365.203 42.752 358.803 37.504 349.971 37.504C341.395 37.504 335.123 42.624 334.355 50.432ZM428.994 91.392C418.498 91.392 403.01 88.192 394.946 84.48L395.586 64.768C403.522 70.272 413.89 73.6 423.362 73.6C434.37 73.6 438.338 71.68 438.338 67.968C438.338 63.488 432.194 62.208 419.266 59.776C405.698 57.472 395.842 51.968 395.842 39.936C395.842 28.8 407.362 19.456 428.738 19.456C441.282 19.456 451.266 21.376 459.074 24.064V41.856C453.058 38.912 442.946 36.864 435.266 36.864C424.898 36.864 420.29 38.656 420.29 42.24C420.29 46.08 426.434 47.488 439.362 49.92C453.826 52.608 462.786 57.472 462.786 69.504C462.786 82.56 450.37 91.392 428.994 91.392ZM503.994 91.392C493.498 91.392 478.01 88.192 469.946 84.48L470.586 64.768C478.522 70.272 488.89 73.6 498.362 73.6C509.37 73.6 513.338 71.68 513.338 67.968C513.338 63.488 507.194 62.208 494.266 59.776C480.698 57.472 470.842 51.968 470.842 39.936C470.842 28.8 482.362 19.456 503.738 19.456C516.282 19.456 526.266 21.376 534.074 24.064V41.856C528.058 38.912 517.946 36.864 510.266 36.864C499.898 36.864 495.29 38.656 495.29 42.24C495.29 46.08 501.434 47.488 514.362 49.92C528.826 52.608 537.786 57.472 537.786 69.504C537.786 82.56 525.37 91.392 503.994 91.392ZM584.882 91.392C560.818 91.392 544.69 76.032 544.69 55.424C544.69 34.816 560.818 19.456 584.882 19.456C608.818 19.456 624.818 34.816 624.818 55.424C624.818 76.032 608.818 91.392 584.882 91.392ZM584.882 71.68C593.714 71.68 600.754 65.024 600.754 55.424C600.754 45.696 593.714 39.296 584.882 39.296C575.922 39.296 568.882 45.696 568.882 55.424C568.882 65.024 575.922 71.68 584.882 71.68Z" fill="white"/>
</svg>
