<svg width="362" height="97" viewBox="0 0 362 97" fill="none" xmlns="http://www.w3.org/2000/svg">
<path d="M0 94.976V5.37601H73.344V27.392H28.16V41.088H63.488V57.472H28.16V94.976H0ZM94.282 17.408C85.322 17.408 80.458 14.336 80.458 8.70401C80.458 3.07201 85.322 7.62939e-06 94.282 7.62939e-06C103.114 7.62939e-06 107.978 3.07201 107.978 8.70401C107.978 14.336 103.114 17.408 94.282 17.408ZM82.506 94.976V26.624H106.698V94.976H82.506ZM117.872 94.976V7.93601H141.936V94.976H117.872ZM190.998 96.768C173.846 96.768 160.918 87.936 160.918 69.632V45.056H149.142V32.256L182.038 9.72801H185.11V26.624H212.246V45.312H185.11V63.744C185.11 72.448 190.102 76.032 199.318 76.032C205.334 76.032 209.686 74.624 212.374 73.344L212.886 93.44C207.382 95.104 199.702 96.768 190.998 96.768ZM260.278 96.768C231.99 96.768 219.19 79.104 219.19 60.672C219.19 40.32 235.062 24.832 257.974 24.832C280.118 24.832 295.862 40.32 295.862 59.904C295.862 61.568 295.734 65.152 295.606 66.432H242.742C243.894 74.368 253.238 79.104 264.374 79.104C273.59 79.104 279.734 76.416 286.518 71.936L289.078 89.856C282.038 94.464 271.542 96.768 260.278 96.768ZM242.23 55.808H273.59C273.078 48.128 266.678 42.88 257.846 42.88C249.27 42.88 242.998 48 242.23 55.808ZM304.997 94.976V26.624H308.325L324.325 38.528H324.837C329.829 29.696 338.917 24.832 349.541 24.832C354.277 24.832 357.989 25.6 361.701 27.136L361.317 48.384C360.293 48 356.581 44.8 349.925 44.8C337.637 44.8 329.445 52.608 329.189 64V94.976H304.997Z" fill="white"/>
</svg>
