<svg width="226" height="89" viewBox="0 0 226 89" fill="none" xmlns="http://www.w3.org/2000/svg">
<path d="M219.5 88.5039C217.486 88.5039 214.515 87.8899 212.967 87.1777L213.09 83.3957C214.613 84.4517 216.602 85.0902 218.42 85.0902C220.532 85.0902 221.293 84.7218 221.293 84.0096C221.293 83.1501 220.114 82.9045 217.634 82.4379C215.03 81.9958 213.139 80.9398 213.139 78.6313C213.139 76.4946 215.35 74.7018 219.451 74.7018C221.858 74.7018 223.773 75.0702 225.271 75.586V78.9996C224.117 78.4348 222.177 78.0418 220.704 78.0418C218.714 78.0418 217.83 78.3857 217.83 79.0733C217.83 79.8101 219.009 80.0802 221.489 80.5468C224.265 81.0626 225.984 81.9958 225.984 84.3043C225.984 86.8093 223.601 88.5039 219.5 88.5039Z" fill="#FCF8F7"/>
<path d="M200.393 88.1601V75.0457H201.032L204.102 77.3296H204.2C205.158 75.6351 206.902 74.7018 208.94 74.7018C209.849 74.7018 210.561 74.8492 211.273 75.1439L211.199 79.2207C211.003 79.147 210.291 78.533 209.014 78.533C206.656 78.533 205.084 80.0311 205.035 82.2168V88.1601H200.393Z" fill="#FCF8F7"/>
<path d="M191.126 88.5039C185.698 88.5039 183.243 85.1148 183.243 81.5783C183.243 77.6735 186.288 74.7018 190.684 74.7018C194.933 74.7018 197.953 77.6735 197.953 81.431C197.953 81.7502 197.929 82.4379 197.904 82.6835H187.761C187.982 84.2061 189.775 85.1148 191.912 85.1148C193.68 85.1148 194.859 84.599 196.161 83.7395L196.652 87.1777C195.301 88.0618 193.287 88.5039 191.126 88.5039ZM187.663 80.6451H193.68C193.582 79.1715 192.354 78.1646 190.659 78.1646C189.014 78.1646 187.811 79.147 187.663 80.6451Z" fill="#FCF8F7"/>
<path d="M177.146 88.5044C173.855 88.5044 171.374 86.8098 171.374 83.2979V78.5826H169.115V76.1267L175.427 71.8044H176.016V75.0461H181.223V78.6317H176.016V82.1682C176.016 83.8382 176.974 84.5259 178.742 84.5259C179.896 84.5259 180.731 84.2557 181.247 84.0101L181.345 87.8659C180.289 88.1851 178.816 88.5044 177.146 88.5044Z" fill="#FCF8F7"/>
<path d="M161.012 88.5039C158.999 88.5039 156.027 87.8899 154.48 87.1777L154.602 83.3957C156.125 84.4517 158.114 85.0902 159.932 85.0902C162.044 85.0902 162.805 84.7218 162.805 84.0096C162.805 83.1501 161.626 82.9045 159.146 82.4379C156.543 81.9958 154.652 80.9398 154.652 78.6313C154.652 76.4946 156.862 74.7018 160.963 74.7018C163.37 74.7018 165.286 75.0702 166.784 75.586V78.9996C165.629 78.4348 163.689 78.0418 162.216 78.0418C160.226 78.0418 159.342 78.3857 159.342 79.0733C159.342 79.8101 160.521 80.0802 163.002 80.5468C165.777 81.0626 167.496 81.9958 167.496 84.3043C167.496 86.8093 165.114 88.5039 161.012 88.5039Z" fill="#FCF8F7"/>
<path d="M142.368 88.5039C138.979 88.5039 136.547 85.6796 136.547 81.6029C136.547 77.698 139.2 74.7018 142.834 74.7018C145.069 74.7018 146.985 75.8315 148.016 77.6243H148.139L151.381 75.0457H151.97V88.1601H146.887C147.132 87.276 147.255 86.4164 147.304 85.5077H147.132C146.248 87.2268 144.578 88.5039 142.368 88.5039ZM144.406 84.7218C146.15 84.7218 147.525 83.3957 147.525 81.5292C147.525 79.7118 146.15 78.4102 144.406 78.4102C142.662 78.4102 141.263 79.7118 141.263 81.5538C141.263 83.3957 142.638 84.7218 144.406 84.7218Z" fill="#FCF8F7"/>
<path d="M126.903 88.5039C122.286 88.5039 119.191 85.5568 119.191 81.6029C119.191 77.6489 122.286 74.7018 126.903 74.7018C131.495 74.7018 134.565 77.6489 134.565 81.6029C134.565 85.5568 131.495 88.5039 126.903 88.5039ZM126.903 84.7218C128.597 84.7218 129.948 83.4448 129.948 81.6029C129.948 79.7364 128.597 78.5085 126.903 78.5085C125.184 78.5085 123.833 79.7364 123.833 81.6029C123.833 83.4448 125.184 84.7218 126.903 84.7218Z" fill="#FCF8F7"/>
<path d="M115.036 88.5043C111.917 88.5043 110.173 87.6447 108.159 84.5503L106.293 81.8243L106.146 81.8489V88.1605H100.743V70.9693H111.18C115.036 70.9693 117.541 73.3515 117.541 76.6669C117.541 79.4667 115.38 81.7261 112.015 81.7261C111.426 81.7261 110.91 81.6524 110.419 81.5787L110.345 81.7261C111.868 83.2487 112.703 83.7644 113.882 83.7644C115.306 83.7644 116.559 83.175 117.271 82.2664L118.032 87.6447C117.246 88.0868 116.018 88.5043 115.036 88.5043ZM109.829 79.4667C111.303 79.4667 112.556 78.6317 112.556 77.33C112.556 76.053 111.524 75.3162 110.026 75.3162H106.146V78.5089C107.472 79.1228 108.503 79.4667 109.829 79.4667Z" fill="#FCF8F7"/>
<path d="M84.9109 88.5039C79.4834 88.5039 77.0275 85.1148 77.0275 81.5783C77.0275 77.6735 80.0728 74.7018 84.4688 74.7018C88.7175 74.7018 91.7383 77.6735 91.7383 81.431C91.7383 81.7502 91.7137 82.4379 91.6891 82.6835H81.5464C81.7674 84.2061 83.5602 85.1148 85.6968 85.1148C87.465 85.1148 88.6438 84.599 89.9455 83.7395L90.4366 87.1777C89.0859 88.0618 87.0721 88.5039 84.9109 88.5039ZM81.4481 80.6451H87.465C87.3668 79.1715 86.1389 78.1646 84.4443 78.1646C82.7989 78.1646 81.5955 79.147 81.4481 80.6451Z" fill="#FCF8F7"/>
<path d="M68.227 88.5039C62.7995 88.5039 60.3436 85.1148 60.3436 81.5783C60.3436 77.6735 63.3889 74.7018 67.7849 74.7018C72.0336 74.7018 75.0544 77.6735 75.0544 81.431C75.0544 81.7502 75.0298 82.4379 75.0052 82.6835H64.8625C65.0835 84.2061 66.8763 85.1148 69.0129 85.1148C70.7811 85.1148 71.96 84.599 73.2616 83.7395L73.7527 87.1777C72.402 88.0618 70.3882 88.5039 68.227 88.5039ZM64.7642 80.6451H70.7811C70.6829 79.1715 69.455 78.1646 67.7604 78.1646C66.115 78.1646 64.9116 79.147 64.7642 80.6451Z" fill="#FCF8F7"/>
<path d="M51.0605 88.1848V78.4841H48.0398V75.0458H52.0183V74.8002C50.0782 74.702 48.8502 73.8916 48.8502 72.8601C48.8502 71.5585 50.0782 70.6252 53.983 70.6252C55.6039 70.6252 57.3721 70.9936 58.1089 71.1655L58.0352 73.4986C57.716 73.3513 56.9792 73.1548 56.1196 73.1548C54.6952 73.1548 53.983 73.4004 53.983 74.0144C53.983 74.6283 55.0882 75.0458 56.4144 75.0458H58.8702V78.4841H55.6776V88.1848H51.0605Z" fill="#FCF8F7"/>
<path d="M38.9805 88.1848V78.4841H35.9598V75.0458H39.9383V74.8002C37.9982 74.702 36.7702 73.8916 36.7702 72.8601C36.7702 71.5585 37.9982 70.6252 41.903 70.6252C43.5239 70.6252 45.2921 70.9936 46.0289 71.1655L45.9552 73.4986C45.636 73.3513 44.8992 73.1548 44.0396 73.1548C42.6152 73.1548 41.903 73.4004 41.903 74.0144C41.903 74.6283 43.0082 75.0458 44.3343 75.0458H46.7902V78.4841H43.5976V88.1848H38.9805Z" fill="#FCF8F7"/>
<path d="M26.6831 88.5039C22.0661 88.5039 18.9717 85.5568 18.9717 81.6029C18.9717 77.6489 22.0661 74.7018 26.6831 74.7018C31.2756 74.7018 34.3455 77.6489 34.3455 81.6029C34.3455 85.5568 31.2756 88.5039 26.6831 88.5039ZM26.6831 84.7218C28.3777 84.7218 29.7284 83.4448 29.7284 81.6029C29.7284 79.7364 28.3777 78.5085 26.6831 78.5085C24.964 78.5085 23.6133 79.7364 23.6133 81.6029C23.6133 83.4448 24.964 84.7218 26.6831 84.7218Z" fill="#FCF8F7"/>
<path d="M10.5186 88.5041C4.15783 88.5041 0.130188 84.8448 0.130188 79.5892C0.130188 74.5301 4.30519 70.6252 9.80636 70.6252C12.8517 70.6252 15.4549 71.9023 16.7074 73.4249L12.9253 76.6913C12.2868 75.9299 11.329 75.4388 10.052 75.4388C7.54695 75.4388 5.68048 77.1824 5.68048 79.5155C5.68048 81.9469 7.57151 83.5677 10.3958 83.5677C12.5078 83.5677 15.7496 82.3152 17.3705 80.8663V86.613C15.725 87.7182 13.0727 88.5041 10.5186 88.5041Z" fill="#FCF8F7"/>
<path d="M179.776 48.5819V6.10352e-05H198.494V18.1468H198.994C201.28 12.2884 206.138 9.3592 211.568 9.3592C220.213 9.3592 226 15.1462 226 25.2912V48.5819H207.424V29.6493C207.424 26.7201 205.638 24.6482 202.852 24.6482C200.209 24.6482 198.494 26.7201 198.494 29.5778V48.5819H179.776Z" fill="#FCF8F7"/>
<path d="M161.381 49.6536C146.449 49.6536 136.947 41.1518 136.947 29.2921C136.947 18.1469 145.449 9.35931 160.524 9.35931C165.31 9.35931 172.312 10.5739 175.955 13.3602L172.74 27.2917C170.24 25.4342 166.31 24.1482 163.024 24.1482C158.38 24.1482 155.88 26.1486 155.88 29.1493C155.88 32.0785 159.023 34.0074 163.81 34.0074C168.668 34.0074 173.741 32.4357 176.598 30.4352V46.5816C173.383 48.2248 166.668 49.6536 161.381 49.6536Z" fill="#FCF8F7"/>
<path d="M119.687 49.6015C109.4 49.6015 100.469 44.529 100.469 33.3838V24.5962H95.3965V14.3083L117.258 0.305298H119.116V10.3074H133.262V24.5962H119.116V28.5971C119.116 32.3121 121.974 33.741 126.546 33.741C129.404 33.741 131.69 33.098 133.762 32.2407L133.905 47.6011C129.475 48.9585 124.546 49.6015 119.687 49.6015Z" fill="#FCF8F7"/>
<path d="M66.8159 65.962C61.8863 65.962 52.2414 64.8189 47.5261 63.3186L48.3834 49.5299C51.384 50.8159 56.528 51.8876 60.4574 51.8876C68.7449 51.8876 73.6031 47.3866 73.6031 40.528V39.5278H73.0315C70.8882 45.4576 65.9586 48.4583 60.3145 48.4583C52.0985 48.4583 46.0258 42.7428 46.0258 32.5977V10.3073H64.744V28.5969C64.744 31.5975 66.3872 33.6694 69.1736 33.6694C71.8884 33.6694 73.6031 31.5975 73.6031 28.6683V10.3073H92.2499V44.6717C92.2499 56.9601 84.1053 65.962 66.8159 65.962Z" fill="#FCF8F7"/>
<path d="M21.0045 49.6009C15.289 49.6009 4.92963 47.9577 0 46.3145L0.142888 31.0255C5.07251 34.3834 10.9309 35.9551 16.1463 35.9551C21.2903 35.9551 23.3621 35.3121 23.3621 33.9547C23.3621 32.2401 19.4327 32.1686 13.8601 31.5256C7.0015 30.8112 0.0714437 28.7393 0.0714437 20.8805C0.0714437 14.2362 7.07294 9.30658 20.8616 9.30658C29.1491 9.30658 35.8648 10.4497 40.9373 12.1643L40.7944 25.5958C37.2937 23.7382 31.0066 22.4522 26.7914 22.4522C22.1476 22.4522 19.5756 23.0238 19.5756 24.3098C19.5756 25.8101 23.6479 25.8101 29.3634 26.596C36.2935 27.3819 42.8663 29.4537 42.8663 36.8125C42.8663 44.8856 35.0789 49.6009 21.0045 49.6009Z" fill="#FCF8F7"/>
</svg>
