<svg width="322" height="334" viewBox="0 0 322 334" fill="none" xmlns="http://www.w3.org/2000/svg">
<path d="M119.874 65.7577C123.349 71.3178 135.946 81.3955 140.073 84.4362C144.2 87.4769 147.284 87.781 152.67 89.866C159.403 92.4723 167.439 94.2099 182.425 95.9474C194.414 97.3374 212.036 95.3682 219.348 94.2099C219.203 93.0515 218.783 89.4751 218.262 84.4362C217.611 78.1376 213.049 68.5812 210.443 64.0202C207.837 59.4591 197.629 50.9886 188.507 48.1652C181.209 45.9064 171.421 48.2375 167.439 49.6855V40.5634C167.439 36.2196 168.959 24.4912 168.959 21.2333C168.959 17.9755 169.177 3.20637 145.937 1.90322C122.698 0.600068 114.227 23.8396 113.141 36.4368C112.055 49.0339 115.53 58.8075 119.874 65.7577Z" fill="#5804E2" stroke="#1A0044" stroke-width="3.70108"/>
<path d="M179.401 46.8099L182.659 47.8958L192.216 49.4162C191.419 46.9546 188.871 42.1185 185.048 42.466C181.226 42.8135 179.691 45.5067 179.401 46.8099Z" fill="#1A0044" stroke="#1A0044" stroke-width="0.308423"/>
<path d="M190.912 74.1756C192.128 63.5767 184.758 51.8049 180.921 47.2438C179.546 47.3524 176.208 47.6565 173.862 48.004C171.517 48.3515 168.686 49.3072 167.564 49.7415C167.528 50.1397 167.477 51.327 167.564 52.8908C167.673 54.8456 168.541 57.6691 169.301 59.5152C170.062 61.3613 172.451 64.7278 174.297 66.3567C175.774 67.6599 179.328 69.9404 180.921 70.9178L189.935 74.1756C189.754 78.5919 189.696 84.7746 190.912 74.1756Z" fill="white" stroke="#1A0044" stroke-width="3.70108"/>
<path d="M167.456 49.8506C167.456 60.0586 172.973 67.0088 182.008 71.3526" stroke="#1A0044" stroke-width="0.308423"/>
<path d="M173.521 68.5819C167.222 66.6272 161.358 65.5412 145.503 65.9756C141.494 66.0855 138.45 66.7767 136.163 67.7668C138.191 69.5589 142.896 73.6207 145.503 75.5321C148.761 77.9212 163.964 84.0025 173.521 86.826C181.166 89.0848 201.176 90.0839 210.226 90.3011C212.253 90.3735 216.047 89.997 215.004 87.912C213.701 85.3057 209.14 82.6994 205.013 80.5274C200.887 78.3555 179.819 70.5367 173.521 68.5819Z" fill="#1A0044"/>
<path d="M129.865 75.5321C129.815 73.4524 131.215 69.9096 136.163 67.7668M136.163 67.7668C138.45 66.7767 141.494 66.0855 145.503 65.9756C161.358 65.5412 167.222 66.6272 173.521 68.5819C179.819 70.5367 200.887 78.3555 205.013 80.5274C209.14 82.6994 213.701 85.3057 215.004 87.912C216.047 89.997 212.253 90.3735 210.226 90.3011C201.176 90.0839 181.166 89.0848 173.521 86.826C163.964 84.0025 148.761 77.9212 145.503 75.5321C142.896 73.6207 138.191 69.5589 136.163 67.7668Z" stroke="#1A0044" stroke-width="3.70108"/>
<path d="M286.694 317.689C286.694 317.689 276.993 297.563 271.925 295.101L64.5066 303.761L67.1129 325.725C66.027 325.653 62.5085 324.726 57.1221 321.598C50.3892 317.689 39.9639 298.576 39.9639 298.576L32.1452 314.865C30.0457 317.544 25.8901 314.735 26.0638 282.069C26.2948 238.645 45.1273 186.215 75.8006 155.012C88.3976 142.198 110.789 128.949 111.203 126.343C111.617 123.736 114.244 107.881 118.587 100.28C126.623 110.271 130.557 118.993 142.479 118.307C142.479 118.307 162.605 86.1622 172.017 76.6058C178.677 98.325 199.383 131.338 199.383 131.338C199.383 131.338 214.152 115.483 232.831 118.307C230.731 125.981 229.067 142.678 237.609 150.017C300.812 204.315 286.043 196.93 307.762 235.808C325.137 266.909 319.997 297.418 315.364 305.961C307.762 288.513 292.993 282.504 292.993 282.504C292.993 282.504 293.944 292.635 292.993 299.01C291.857 306.624 286.694 317.689 286.694 317.689Z" fill="#887B9D"/>
<path d="M53.43 304.223L64.5066 303.761M64.5066 303.761L271.925 295.101C276.993 297.563 286.694 317.689 286.694 317.689C286.694 317.689 291.857 306.624 292.993 299.01C293.944 292.635 292.993 282.504 292.993 282.504C292.993 282.504 307.762 288.513 315.364 305.961C319.997 297.418 325.137 266.909 307.762 235.808C286.043 196.93 300.812 204.315 237.609 150.017C229.067 142.678 230.731 125.981 232.831 118.307C214.152 115.483 199.383 131.338 199.383 131.338C199.383 131.338 178.677 98.325 172.017 76.6058C162.605 86.1622 142.479 118.307 142.479 118.307C130.557 118.993 126.623 110.271 118.587 100.28C114.244 107.881 111.617 123.736 111.203 126.343C110.789 128.949 88.3976 142.198 75.8006 155.012C45.1273 186.215 26.2948 238.645 26.0638 282.069C25.8901 314.735 30.0457 317.544 32.1452 314.865L39.9639 298.576C39.9639 298.576 50.3892 317.689 57.1221 321.598C62.5085 324.726 66.027 325.653 67.1129 325.725L64.5066 303.761Z" stroke="#1A0044" stroke-width="3.70108" stroke-linecap="square"/>
<path fill-rule="evenodd" clip-rule="evenodd" d="M26.2304 287.169C98.7657 300.254 126.143 246.407 122.061 218.647C118.253 192.758 98.4287 171.54 73.7006 157.334C44.3628 188.771 26.446 239.686 26.2207 282.035C26.2112 283.836 26.2147 285.546 26.2304 287.169ZM319.808 287.157C320.737 273.48 318.513 254.737 307.919 235.773C302.904 226.797 299.835 220.287 297.301 214.914C288.863 197.017 286.376 191.744 237.766 149.982C236.056 148.513 234.755 146.669 233.784 144.597C220.927 147.337 208.027 151.147 200.251 156.096C181.138 168.259 159.762 193.772 159.762 225.164C159.762 247.135 165.793 273.908 200.251 277.328C234.709 280.748 316.133 264.093 316.133 264.093L319.808 287.157Z" fill="#30293C"/>
<path d="M122.061 218.647L123.281 218.468V218.468L122.061 218.647ZM26.2304 287.169L24.9968 287.181L25.0066 288.202L26.0114 288.383L26.2304 287.169ZM73.7006 157.334L74.3151 156.264L73.4664 155.777L72.7986 156.492L73.7006 157.334ZM26.2207 282.035L24.9871 282.028L26.2207 282.035ZM307.919 235.773L306.842 236.375V236.375L307.919 235.773ZM319.808 287.157L318.59 287.352L321.039 287.241L319.808 287.157ZM297.301 214.914L298.417 214.388V214.388L297.301 214.914ZM237.766 149.982L238.57 149.046V149.046L237.766 149.982ZM233.784 144.597L234.902 144.074L234.486 143.186L233.527 143.391L233.784 144.597ZM200.251 156.096L199.588 155.055V155.055L200.251 156.096ZM200.251 277.328L200.373 276.1V276.1L200.251 277.328ZM316.133 264.093L317.351 263.899L317.148 262.626L315.885 262.884L316.133 264.093ZM120.84 218.827C122.819 232.28 117.16 252.3 102.008 267.349C86.9216 282.333 62.3628 292.434 26.4494 285.955L26.0114 288.383C62.6333 294.99 88.0308 284.709 103.747 269.1C119.396 253.557 125.385 232.774 123.281 218.468L120.84 218.827ZM73.086 158.404C97.6474 172.514 117.11 193.463 120.84 218.827L123.281 218.468C119.397 192.053 99.2099 170.566 74.3151 156.264L73.086 158.404ZM27.4544 282.041C27.6782 239.963 45.5017 189.359 74.6025 158.176L72.7986 156.492C43.2239 188.184 25.2138 239.408 24.9871 282.028L27.4544 282.041ZM27.464 287.157C27.4484 285.54 27.4449 283.836 27.4544 282.041L24.9871 282.028C24.9775 283.835 24.981 285.551 24.9968 287.181L27.464 287.157ZM306.842 236.375C317.301 255.097 319.492 273.595 318.578 287.074L321.039 287.241C321.981 273.364 319.724 254.376 308.996 235.171L306.842 236.375ZM296.186 215.441C298.722 220.819 301.806 227.36 306.842 236.375L308.996 235.171C304.003 226.233 300.948 219.755 298.417 214.388L296.186 215.441ZM236.962 150.918C261.275 171.806 273.986 183.512 281.673 192.214C289.307 200.855 291.979 206.518 296.186 215.441L298.417 214.388C294.186 205.414 291.395 199.491 283.523 190.581C275.705 181.731 262.867 169.92 238.57 149.046L236.962 150.918ZM232.667 145.121C233.698 147.321 235.097 149.316 236.962 150.918L238.57 149.046C237.015 147.71 235.812 146.017 234.902 144.074L232.667 145.121ZM200.913 157.137C208.486 152.318 221.192 148.542 234.042 145.804L233.527 143.391C220.662 146.132 207.568 149.977 199.588 155.055L200.913 157.137ZM160.996 225.164C160.996 194.329 182.025 169.156 200.913 157.137L199.588 155.055C180.25 167.361 158.528 193.216 158.528 225.164H160.996ZM200.373 276.1C183.505 274.426 173.747 267.079 168.147 257.577C162.499 247.993 160.996 236.072 160.996 225.164H158.528C158.528 236.228 160.04 248.679 166.022 258.829C172.051 269.061 182.539 276.81 200.129 278.556L200.373 276.1ZM316.133 264.093C315.885 262.884 315.885 262.884 315.885 262.884C315.884 262.885 315.883 262.885 315.882 262.885C315.88 262.885 315.876 262.886 315.871 262.887C315.861 262.889 315.847 262.892 315.827 262.896C315.789 262.904 315.73 262.916 315.653 262.931C315.499 262.963 315.269 263.009 314.967 263.07C314.364 263.19 313.475 263.367 312.33 263.591C310.04 264.039 306.729 264.676 302.648 265.429C294.485 266.935 283.244 268.908 270.929 270.773C246.244 274.513 217.424 277.793 200.373 276.1L200.129 278.556C217.536 280.283 246.657 276.946 271.298 273.213C283.646 271.342 294.915 269.365 303.096 267.855C307.186 267.1 310.506 266.462 312.803 266.013C313.952 265.788 314.846 265.61 315.452 265.489C315.755 265.428 315.987 265.381 316.143 265.35C316.221 265.334 316.28 265.322 316.32 265.314C316.339 265.31 316.354 265.307 316.364 265.305C316.369 265.304 316.373 265.303 316.376 265.302C316.377 265.302 316.378 265.302 316.379 265.302C316.379 265.302 316.38 265.302 316.133 264.093ZM321.027 286.963L317.351 263.899L314.914 264.287L318.59 287.352L321.027 286.963Z" fill="#1A0044"/>
<circle cx="51.6917" cy="219.517" r="49.8412" fill="#FC643F" stroke="#1A0044" stroke-width="3.70108"/>
<path d="M246.484 166.325C279.342 166.325 305.448 188.91 305.448 216.166C305.448 243.422 279.342 266.007 246.484 266.007C213.626 266.007 187.521 243.421 187.521 216.166C187.521 188.91 213.626 166.325 246.484 166.325Z" fill="#FC643F" stroke="#1A0044" stroke-width="3.70108"/>
<path d="M244.14 193.15C239.506 203.575 233.02 227.553 244.14 240.063C255.26 252.574 248.773 214 244.14 193.15Z" fill="#1A0044"/>
<path d="M45.4525 199.319C40.8191 209.744 34.3323 233.722 45.4525 246.233C56.5727 258.743 50.0859 220.17 45.4525 199.319Z" fill="#1A0044"/>
<path d="M163.19 267.537C168.741 250.265 148.828 239.835 136.665 240.704C117.162 242.097 110.961 260.811 113.379 278.949C115.117 291.98 122.94 318.581 136.665 331.381C136.665 331.381 157.638 284.809 163.19 267.537Z" fill="#221539" stroke="#1A0044" stroke-width="2.46739"/>
</svg>
