<svg width="512" height="512" viewBox="0 0 512 512" fill="none" xmlns="http://www.w3.org/2000/svg">
<g clip-path="url(#clip0_6544_281)">
<rect width="512" height="512" fill="white"/>
<rect x="-0.0507812" y="0.211426" width="512" height="512" fill="#FF4B23"/>
<path d="M254.35 402.211C211.15 402.211 143.55 390.611 104.75 378.211L105.55 260.211C137.95 289.811 183.95 305.011 237.95 305.011C275.95 305.011 303.55 297.011 303.55 283.811C303.55 268.611 277.15 277.811 233.55 278.611C177.15 279.811 110.75 257.411 110.75 201.011C110.75 141.411 175.95 110.211 260.75 110.211C304.35 110.211 352.35 119.411 379.55 129.411V228.211C360.35 215.011 323.55 205.811 284.75 205.811C247.55 205.811 212.75 211.811 212.75 224.611C212.75 238.611 247.55 232.611 293.55 231.811C347.15 230.611 407.15 251.011 407.15 307.811C407.15 369.811 340.35 402.211 254.35 402.211Z" fill="#FFFBFA"/>
</g>
<defs>
<clipPath id="clip0_6544_281">
<rect width="512" height="512" fill="white"/>
</clipPath>
</defs>
</svg>
